<?xml version="1.0" encoding="utf-8"?>
<!-- Generator: Adobe Illustrator 19.0.0, SVG Export Plug-In . SVG Version: 6.00 Build 0)  -->
<svg version="1.1" id="Ebene_1" xmlns="http://www.w3.org/2000/svg" xmlns:xlink="http://www.w3.org/1999/xlink" x="0px" y="0px"
	 viewBox="0 0 128 128" style="enable-background:new 0 0 128 128;" xml:space="preserve">
<style type="text/css">
	.st0{fill:#FFFFFF;}
	.st1{fill:none;stroke:#FFFFFF;stroke-width:1.8888;stroke-linecap:round;stroke-miterlimit:10;}
</style>
<rect id="XMLID_9_" width="128" height="128"/>
<g id="XMLID_52_">
	<path id="XMLID_63_" class="st0" d="M41.387,78.592c0,0.22-0.076,0.399-0.229,0.534c-0.152,0.136-0.331,0.204-0.535,0.204
		c-0.169,0-0.318-0.047-0.445-0.14c-0.128-0.093-0.225-0.217-0.293-0.369l-1.909-4.659h-8.274l-1.884,4.659
		c-0.136,0.338-0.365,0.508-0.687,0.508c-0.237,0-0.416-0.059-0.534-0.178c-0.119-0.119-0.188-0.281-0.204-0.484v-0.075
		c0-0.103,0.008-0.178,0.025-0.229l6.721-16.446c0.136-0.339,0.39-0.509,0.763-0.509c0.169,0,0.318,0.047,0.446,0.14
		c0.127,0.093,0.225,0.216,0.293,0.369l6.695,16.369C41.369,78.422,41.387,78.524,41.387,78.592z M30.287,72.66h7.077L33.8,63.953
		L30.287,72.66z"/>
	<path id="XMLID_61_" class="st0" d="M58.711,70.533c0.144,0.144,0.216,0.327,0.216,0.549v6.135c0,0.289-0.127,0.518-0.382,0.686
		c-0.763,0.526-1.613,0.933-2.545,1.222c-0.933,0.289-1.884,0.433-2.851,0.433c-1.731,0-3.293-0.399-4.684-1.197
		c-1.392-0.797-2.487-1.893-3.284-3.285c-0.798-1.391-1.197-2.953-1.197-4.683s0.399-3.293,1.197-4.683
		c0.797-1.392,1.892-2.486,3.284-3.284c1.391-0.798,2.953-1.197,4.684-1.197c0.899,0,1.769,0.111,2.609,0.33
		c0.84,0.221,1.591,0.535,2.254,0.942c0.237,0.152,0.356,0.365,0.356,0.637c0,0.221-0.072,0.407-0.217,0.56
		c-0.144,0.152-0.31,0.229-0.496,0.229c-0.17,0-0.322-0.043-0.458-0.128c-1.273-0.696-2.622-1.044-4.048-1.044
		c-1.443,0-2.737,0.331-3.882,0.993c-1.146,0.662-2.041,1.575-2.686,2.738c-0.646,1.163-0.968,2.465-0.968,3.907
		c0,1.444,0.322,2.746,0.968,3.907c0.645,1.163,1.54,2.075,2.686,2.738c1.145,0.661,2.44,0.993,3.882,0.993
		c0.729,0,1.464-0.103,2.201-0.306c0.739-0.204,1.396-0.483,1.974-0.84v-5.04h-4.023c-0.221,0-0.407-0.072-0.56-0.217
		c-0.153-0.144-0.229-0.327-0.229-0.547c0-0.221,0.076-0.404,0.229-0.549c0.152-0.143,0.339-0.217,0.56-0.217h4.862
		C58.383,70.317,58.566,70.391,58.711,70.533z"/>
	<path id="XMLID_59_" class="st0" d="M74.266,78.032c0.143,0.152,0.217,0.33,0.217,0.534c0,0.221-0.074,0.399-0.217,0.534
		c-0.144,0.136-0.327,0.204-0.549,0.204h-9.343c-0.221,0-0.403-0.072-0.547-0.217c-0.144-0.143-0.217-0.326-0.217-0.547V62.248
		c0-0.221,0.072-0.403,0.217-0.548c0.144-0.144,0.326-0.217,0.547-0.217h9.343c0.221,0,0.404,0.072,0.549,0.217
		c0.143,0.144,0.217,0.327,0.217,0.548c0,0.221-0.074,0.399-0.217,0.534c-0.144,0.136-0.327,0.204-0.549,0.204h-8.502v6.39h7.357
		c0.221,0,0.402,0.072,0.547,0.217c0.144,0.144,0.217,0.327,0.217,0.547c0,0.221-0.072,0.399-0.217,0.536
		c-0.144,0.135-0.326,0.204-0.547,0.204h-7.357v6.924h8.502C73.939,77.802,74.122,77.878,74.266,78.032z"/>
	<path id="XMLID_57_" class="st0" d="M92.39,61.687c0.127,0.136,0.191,0.306,0.191,0.509v16.292c0,0.255-0.077,0.456-0.229,0.598
		c-0.152,0.144-0.34,0.217-0.56,0.217c-0.119,0-0.234-0.026-0.343-0.075c-0.111-0.051-0.2-0.111-0.268-0.178L80.26,64.335v14.282
		c0,0.186-0.072,0.348-0.217,0.483c-0.144,0.136-0.31,0.204-0.496,0.204c-0.204,0-0.374-0.067-0.51-0.204
		c-0.136-0.135-0.204-0.297-0.204-0.483V62.248c0-0.238,0.072-0.424,0.217-0.561c0.144-0.136,0.319-0.204,0.523-0.204
		c0.271,0,0.475,0.094,0.609,0.28l10.973,14.791V62.197c0-0.204,0.067-0.373,0.204-0.509c0.136-0.136,0.306-0.204,0.51-0.204
		C92.089,61.484,92.264,61.552,92.39,61.687z"/>
	<path id="XMLID_55_" class="st0" d="M111.522,63.444c0,0.153-0.059,0.323-0.178,0.509c-0.152,0.187-0.348,0.281-0.585,0.281
		c-0.136,0-0.273-0.043-0.407-0.128c-1.359-0.9-2.844-1.35-4.456-1.35c-1.375,0-2.618,0.323-3.729,0.968s-1.986,1.549-2.622,2.711
		c-0.637,1.163-0.954,2.481-0.954,3.959c0,1.511,0.322,2.847,0.967,4.01s1.524,2.063,2.635,2.698
		c1.112,0.637,2.347,0.956,3.703,0.956c1.612,0,3.089-0.443,4.43-1.325c0.135-0.085,0.279-0.127,0.433-0.127
		c0.237,0,0.433,0.101,0.585,0.305c0.119,0.136,0.178,0.298,0.178,0.484c0,0.271-0.119,0.475-0.356,0.611
		c-0.662,0.441-1.477,0.81-2.444,1.107s-1.909,0.446-2.826,0.446c-1.612,0-3.102-0.387-4.467-1.158
		c-1.367-0.773-2.454-1.854-3.259-3.246c-0.807-1.391-1.209-2.979-1.209-4.76c0-1.715,0.399-3.272,1.197-4.671
		c0.797-1.401,1.875-2.495,3.234-3.284c1.357-0.789,2.86-1.184,4.505-1.184c0.951,0,1.88,0.136,2.788,0.407
		c0.908,0.272,1.727,0.654,2.457,1.146C111.395,62.96,111.522,63.173,111.522,63.444z"/>
	<path id="XMLID_53_" class="st0" d="M126.747,62.63l-5.678,7.816v8.095c0,0.221-0.075,0.404-0.229,0.547
		c-0.152,0.144-0.338,0.217-0.56,0.217c-0.22,0-0.403-0.072-0.547-0.217c-0.144-0.143-0.217-0.326-0.217-0.547v-8.069l-5.702-7.791
		c-0.136-0.152-0.204-0.331-0.204-0.534c0-0.204,0.085-0.383,0.255-0.535c0.168-0.153,0.356-0.229,0.56-0.229
		c0.271,0,0.483,0.119,0.637,0.357l5.269,7.178l5.142-7.178c0.186-0.237,0.407-0.357,0.662-0.357c0.204,0,0.382,0.081,0.534,0.242
		c0.152,0.161,0.229,0.335,0.229,0.522C126.899,62.265,126.848,62.426,126.747,62.63z"/>
</g>
<g id="XMLID_39_">
	<path id="XMLID_48_" class="st0" d="M8.224,56.575c-0.942-0.407-1.854-1.044-2.736-1.909c-0.204-0.17-0.306-0.373-0.306-0.611
		c0-0.204,0.08-0.391,0.241-0.56c0.161-0.17,0.344-0.255,0.548-0.255c0.204,0,0.39,0.085,0.56,0.255
		c1.324,1.46,2.979,2.189,4.964,2.189c1.222,0,2.236-0.289,3.043-0.866c0.806-0.577,1.209-1.332,1.209-2.266
		c0-0.73-0.2-1.337-0.598-1.82c-0.399-0.484-0.921-0.878-1.566-1.184c-0.645-0.306-1.468-0.619-2.469-0.942
		c-1.086-0.322-1.998-0.678-2.736-1.07c-0.739-0.39-1.337-0.912-1.795-1.565c-0.459-0.653-0.687-1.48-0.687-2.482
		c0-0.899,0.241-1.697,0.725-2.393c0.484-0.695,1.163-1.243,2.037-1.642c0.874-0.399,1.879-0.598,3.017-0.598
		c1.035,0,2.007,0.174,2.914,0.522c0.908,0.348,1.634,0.844,2.177,1.489c0.255,0.289,0.382,0.534,0.382,0.738
		c0,0.187-0.085,0.361-0.254,0.522c-0.17,0.161-0.356,0.241-0.56,0.241c-0.17,0-0.314-0.059-0.433-0.178
		c-0.458-0.543-1.069-0.984-1.833-1.323c-0.763-0.34-1.561-0.509-2.392-0.509c-1.24,0-2.25,0.276-3.03,0.827
		c-0.781,0.552-1.171,1.303-1.171,2.254c0,0.984,0.373,1.739,1.12,2.266s1.816,1.01,3.208,1.451
		c1.205,0.357,2.189,0.722,2.954,1.095c0.763,0.374,1.387,0.904,1.871,1.591c0.484,0.687,0.725,1.591,0.725,2.711
		c0,0.865-0.25,1.65-0.751,2.355c-0.5,0.705-1.197,1.261-2.088,1.668c-0.891,0.407-1.905,0.61-3.042,0.61
		C10.248,57.185,9.166,56.982,8.224,56.575z"/>
	<path id="XMLID_46_" class="st0" d="M33.63,39.314c0.144,0.136,0.217,0.314,0.217,0.535c0,0.221-0.072,0.395-0.217,0.522
		c-0.144,0.127-0.326,0.191-0.547,0.191h-5.27v15.605c0,0.221-0.076,0.403-0.229,0.547c-0.152,0.144-0.34,0.217-0.56,0.217
		c-0.238,0-0.429-0.072-0.573-0.217c-0.144-0.144-0.216-0.326-0.216-0.547V40.562h-5.27c-0.221,0-0.403-0.068-0.548-0.204
		s-0.217-0.314-0.217-0.535c0-0.204,0.072-0.373,0.217-0.509c0.144-0.136,0.326-0.204,0.548-0.204h12.118
		C33.304,39.111,33.486,39.179,33.63,39.314z"/>
	<path id="XMLID_44_" class="st0" d="M49.35,40.257l-5.677,7.815v8.096c0,0.221-0.076,0.403-0.229,0.547
		c-0.152,0.144-0.339,0.217-0.56,0.217c-0.221,0-0.403-0.072-0.547-0.217c-0.144-0.144-0.217-0.326-0.217-0.547v-8.07l-5.703-7.79
		c-0.136-0.152-0.204-0.331-0.204-0.534c0-0.204,0.085-0.383,0.255-0.535c0.169-0.153,0.356-0.229,0.56-0.229
		c0.271,0,0.484,0.119,0.637,0.357l5.27,7.178l5.142-7.178c0.186-0.237,0.407-0.357,0.662-0.357c0.204,0,0.382,0.081,0.535,0.242
		c0.152,0.161,0.229,0.335,0.229,0.522C49.503,39.892,49.452,40.053,49.35,40.257z"/>
	<path id="XMLID_42_" class="st0" d="M63.517,55.633c0.144,0.136,0.217,0.314,0.217,0.535c0,0.221-0.072,0.403-0.217,0.547
		c-0.144,0.144-0.326,0.217-0.547,0.217h-9.089c-0.221,0-0.403-0.072-0.547-0.217c-0.144-0.144-0.217-0.326-0.217-0.547V39.875
		c0-0.221,0.076-0.403,0.229-0.548c0.152-0.144,0.347-0.217,0.585-0.217c0.221,0,0.407,0.072,0.56,0.217
		c0.153,0.144,0.229,0.327,0.229,0.548v15.554h8.248C63.19,55.429,63.372,55.497,63.517,55.633z"/>
	<path id="XMLID_40_" class="st0" d="M78.079,55.659c0.144,0.152,0.217,0.33,0.217,0.534c0,0.221-0.072,0.399-0.217,0.535
		c-0.144,0.136-0.327,0.204-0.547,0.204h-9.343c-0.221,0-0.403-0.072-0.547-0.217c-0.144-0.144-0.217-0.326-0.217-0.547V39.875
		c0-0.221,0.072-0.403,0.217-0.548c0.144-0.144,0.326-0.217,0.547-0.217h9.343c0.22,0,0.403,0.072,0.547,0.217
		c0.144,0.144,0.217,0.327,0.217,0.548c0,0.221-0.072,0.399-0.217,0.534c-0.144,0.136-0.327,0.204-0.547,0.204h-8.503v6.39h7.358
		c0.22,0,0.403,0.072,0.547,0.217c0.144,0.144,0.217,0.326,0.217,0.547c0,0.221-0.072,0.399-0.217,0.535s-0.327,0.204-0.547,0.204
		h-7.358v6.924h8.503C77.751,55.429,77.934,55.505,78.079,55.659z"/>
</g>
<path id="XMLID_38_" class="st1" d="M117.228,83.138c-7.683,21.431-28.002,36.921-52.113,37.323
	c-31.111,0.519-56.751-24.281-57.27-55.392c-0.02-1.205-0.002-2.402,0.053-3.589"/>
<path id="XMLID_36_" class="st1" d="M15.871,35.121c9.686-16.095,27.2-26.986,47.366-27.322
	c29.356-0.489,53.842,21.565,56.946,50.192"/>
<g id="XMLID_7_">
	<path id="XMLID_27_" class="st0" d="M107.43,87.964h0.531c0.012,0,0.019-0.011,0.015-0.022l-2.186-4.837
		c-0.013-0.028-0.042-0.047-0.074-0.047h-0.45c-0.032,0-0.061,0.018-0.074,0.047l-2.186,4.837c-0.005,0.01,0.003,0.022,0.015,0.022
		h0.53c0.065,0,0.123-0.037,0.149-0.093l0.54-1.194c0.003-0.006,0.008-0.009,0.015-0.009h2.474c0.006,0,0.012,0.004,0.015,0.009
		l0.539,1.194C107.307,87.928,107.366,87.964,107.43,87.964z M104.51,86.075l0.973-2.154c0.003-0.006,0.012-0.006,0.015,0
		l0.973,2.154c0.003,0.006-0.002,0.013-0.009,0.013h-1.942C104.512,86.089,104.507,86.082,104.51,86.075z"/>
	<path id="XMLID_24_" class="st0" d="M95.215,87.911l-3.188-3.968c-0.005-0.006-0.015-0.003-0.015,0.005v3.913
		c0,0.064-0.054,0.116-0.121,0.116h-0.469c-0.009,0-0.016-0.007-0.016-0.015v-4.874c0-0.008,0.007-0.015,0.016-0.015l0.584-0.005
		c0.051,0,0.099,0.022,0.13,0.06l3.196,3.978c0.005,0.006,0.015,0.003,0.015-0.005v-3.928c0-0.064,0.054-0.116,0.121-0.116h0.469
		c0.009,0,0.016,0.007,0.016,0.015v4.889c0,0.009-0.007,0.016-0.016,0.015l-0.595-0.005C95.292,87.971,95.246,87.948,95.215,87.911z
		"/>
	<path id="XMLID_23_" class="st0" d="M101.303,87.911l-3.188-3.968C98.11,83.937,98.1,83.94,98.1,83.948v3.913
		c0,0.064-0.054,0.116-0.121,0.116H97.51c-0.009,0-0.016-0.007-0.016-0.015v-4.874c0-0.008,0.007-0.015,0.016-0.015l0.584-0.005
		c0.051,0,0.099,0.022,0.13,0.06l3.196,3.978c0.005,0.006,0.015,0.003,0.015-0.005v-3.928c0-0.064,0.054-0.116,0.121-0.116h0.469
		c0.009,0,0.016,0.007,0.016,0.015v4.889c0,0.009-0.007,0.016-0.016,0.015l-0.595-0.005
		C101.38,87.971,101.333,87.948,101.303,87.911z"/>
	<path id="XMLID_22_" class="st0" d="M90.254,83.526v-0.448c0-0.009-0.007-0.015-0.016-0.015h-3.223
		c-0.045,0-0.081,0.035-0.081,0.077v4.746c0,0.043,0.036,0.077,0.081,0.077h3.223c0.009,0,0.016-0.007,0.016-0.015V87.5
		c0-0.064-0.054-0.116-0.121-0.116h-2.576c-0.009,0-0.016-0.007-0.016-0.015v-1.542c0-0.009,0.007-0.015,0.016-0.015h2.292
		c0.034,0,0.061-0.026,0.061-0.058V85.29c0-0.032-0.027-0.058-0.061-0.058h-2.292c-0.009,0-0.016-0.007-0.016-0.015v-1.559
		c0-0.009,0.007-0.015,0.016-0.015h2.576C90.2,83.642,90.254,83.59,90.254,83.526z"/>
	<path id="XMLID_19_" class="st0" d="M83.824,83.062h-0.53c-0.065,0-0.123,0.037-0.149,0.093l-1.784,3.95
		c-0.003,0.006-0.012,0.006-0.015,0l-1.784-3.95c-0.026-0.057-0.084-0.093-0.149-0.093h-0.531c-0.012,0-0.019,0.011-0.015,0.022
		l2.186,4.837c0.013,0.028,0.042,0.047,0.074,0.047h0.45c0.032,0,0.061-0.018,0.074-0.047l2.186-4.837
		C83.843,83.073,83.835,83.062,83.824,83.062z"/>
	<path id="XMLID_18_" class="st0" d="M85.589,87.953v-4.775c0-0.064-0.054-0.116-0.121-0.116h-0.469
		c-0.009,0-0.016,0.007-0.016,0.015v4.775c0,0.064,0.054,0.116,0.121,0.116h0.469C85.581,87.968,85.589,87.961,85.589,87.953z"/>
</g>
</svg>
