<?xml version="1.0" encoding="utf-8"?>
<!-- Generator: Adobe Illustrator 19.0.0, SVG Export Plug-In . SVG Version: 6.00 Build 0)  -->
<svg version="1.1" id="Ebene_1" xmlns="http://www.w3.org/2000/svg" xmlns:xlink="http://www.w3.org/1999/xlink" x="0px" y="0px"
	 viewBox="0 0 128 121" style="enable-background:new 0 0 128 121;" xml:space="preserve">
<style type="text/css">
	.st0{fill:#1D1D1B;}
	.st1{fill:none;stroke:#1D1D1B;stroke-width:1.9258;stroke-linecap:round;stroke-miterlimit:10;}
</style>
<g id="XMLID_25_">
	<path id="XMLID_26_" class="st0" d="M39,74.3c0,0.2-0.1,0.4-0.2,0.5c-0.2,0.1-0.3,0.2-0.5,0.2c-0.2,0-0.3,0-0.5-0.1
		c-0.1-0.1-0.2-0.2-0.3-0.4l-1.9-4.8H27l-1.9,4.8c-0.1,0.3-0.4,0.5-0.7,0.5c-0.2,0-0.4-0.1-0.5-0.2c-0.1-0.1-0.2-0.3-0.2-0.5v-0.1
		c0-0.1,0-0.2,0-0.2l6.9-16.8c0.1-0.3,0.4-0.5,0.8-0.5c0.2,0,0.3,0,0.5,0.1c0.1,0.1,0.2,0.2,0.3,0.4L38.9,74
		C38.9,74.1,39,74.2,39,74.3z M27.6,68.3h7.2l-3.6-8.9L27.6,68.3z"/>
	<path id="XMLID_29_" class="st0" d="M56.6,66.1c0.1,0.1,0.2,0.3,0.2,0.6v6.3c0,0.3-0.1,0.5-0.4,0.7c-0.8,0.5-1.6,1-2.6,1.2
		c-1,0.3-1.9,0.4-2.9,0.4c-1.8,0-3.4-0.4-4.8-1.2c-1.4-0.8-2.5-1.9-3.3-3.3c-0.8-1.4-1.2-3-1.2-4.8s0.4-3.4,1.2-4.8
		c0.8-1.4,1.9-2.5,3.3-3.3c1.4-0.8,3-1.2,4.8-1.2c0.9,0,1.8,0.1,2.7,0.3c0.9,0.2,1.6,0.5,2.3,1c0.2,0.2,0.4,0.4,0.4,0.6
		c0,0.2-0.1,0.4-0.2,0.6c-0.1,0.2-0.3,0.2-0.5,0.2c-0.2,0-0.3,0-0.5-0.1c-1.3-0.7-2.7-1.1-4.1-1.1c-1.5,0-2.8,0.3-4,1
		c-1.2,0.7-2.1,1.6-2.7,2.8c-0.7,1.2-1,2.5-1,4c0,1.5,0.3,2.8,1,4c0.7,1.2,1.6,2.1,2.7,2.8c1.2,0.7,2.5,1,4,1c0.7,0,1.5-0.1,2.2-0.3
		c0.8-0.2,1.4-0.5,2-0.9v-5.1h-4.1c-0.2,0-0.4-0.1-0.6-0.2c-0.2-0.1-0.2-0.3-0.2-0.6c0-0.2,0.1-0.4,0.2-0.6c0.2-0.1,0.3-0.2,0.6-0.2
		h5C56.3,65.9,56.5,66,56.6,66.1z"/>
	<path id="XMLID_31_" class="st0" d="M72.5,73.7c0.1,0.2,0.2,0.3,0.2,0.5c0,0.2-0.1,0.4-0.2,0.5C72.3,75,72.2,75,71.9,75h-9.5
		c-0.2,0-0.4-0.1-0.6-0.2c-0.1-0.1-0.2-0.3-0.2-0.6V57.7c0-0.2,0.1-0.4,0.2-0.6c0.1-0.1,0.3-0.2,0.6-0.2h9.5c0.2,0,0.4,0.1,0.6,0.2
		c0.1,0.1,0.2,0.3,0.2,0.6c0,0.2-0.1,0.4-0.2,0.5c-0.1,0.1-0.3,0.2-0.6,0.2h-8.7v6.5h7.5c0.2,0,0.4,0.1,0.6,0.2
		c0.1,0.1,0.2,0.3,0.2,0.6c0,0.2-0.1,0.4-0.2,0.5c-0.1,0.1-0.3,0.2-0.6,0.2h-7.5v7.1h8.7C72.2,73.5,72.3,73.6,72.5,73.7z"/>
	<path id="XMLID_33_" class="st0" d="M91,57.1c0.1,0.1,0.2,0.3,0.2,0.5v16.6c0,0.3-0.1,0.5-0.2,0.6C90.8,75,90.6,75,90.4,75
		c-0.1,0-0.2,0-0.3-0.1c-0.1-0.1-0.2-0.1-0.3-0.2l-11.1-15v14.6c0,0.2-0.1,0.4-0.2,0.5C78.2,75,78.1,75,77.9,75
		c-0.2,0-0.4-0.1-0.5-0.2c-0.1-0.1-0.2-0.3-0.2-0.5V57.7c0-0.2,0.1-0.4,0.2-0.6c0.1-0.1,0.3-0.2,0.5-0.2c0.3,0,0.5,0.1,0.6,0.3
		l11.2,15.1V57.6c0-0.2,0.1-0.4,0.2-0.5c0.1-0.1,0.3-0.2,0.5-0.2C90.7,56.9,90.8,56.9,91,57.1z"/>
	<path id="XMLID_35_" class="st0" d="M110.5,58.9c0,0.2-0.1,0.3-0.2,0.5c-0.2,0.2-0.4,0.3-0.6,0.3c-0.1,0-0.3,0-0.4-0.1
		c-1.4-0.9-2.9-1.4-4.5-1.4c-1.4,0-2.7,0.3-3.8,1c-1.1,0.7-2,1.6-2.7,2.8c-0.6,1.2-1,2.5-1,4c0,1.5,0.3,2.9,1,4.1
		c0.7,1.2,1.6,2.1,2.7,2.8c1.1,0.6,2.4,1,3.8,1c1.6,0,3.1-0.5,4.5-1.4c0.1-0.1,0.3-0.1,0.4-0.1c0.2,0,0.4,0.1,0.6,0.3
		c0.1,0.1,0.2,0.3,0.2,0.5c0,0.3-0.1,0.5-0.4,0.6c-0.7,0.4-1.5,0.8-2.5,1.1c-1,0.3-1.9,0.5-2.9,0.5c-1.6,0-3.2-0.4-4.6-1.2
		c-1.4-0.8-2.5-1.9-3.3-3.3c-0.8-1.4-1.2-3-1.2-4.9c0-1.7,0.4-3.3,1.2-4.8c0.8-1.4,1.9-2.5,3.3-3.3c1.4-0.8,2.9-1.2,4.6-1.2
		c1,0,1.9,0.1,2.8,0.4c0.9,0.3,1.8,0.7,2.5,1.2C110.3,58.4,110.5,58.6,110.5,58.9z"/>
	<path id="XMLID_37_" class="st0" d="M126,58l-5.8,8v8.3c0,0.2-0.1,0.4-0.2,0.6c-0.2,0.1-0.3,0.2-0.6,0.2c-0.2,0-0.4-0.1-0.6-0.2
		c-0.1-0.1-0.2-0.3-0.2-0.6V66l-5.8-7.9c-0.1-0.2-0.2-0.3-0.2-0.5c0-0.2,0.1-0.4,0.3-0.5c0.2-0.2,0.4-0.2,0.6-0.2
		c0.3,0,0.5,0.1,0.6,0.4l5.4,7.3l5.2-7.3c0.2-0.2,0.4-0.4,0.7-0.4c0.2,0,0.4,0.1,0.5,0.2c0.2,0.2,0.2,0.3,0.2,0.5
		C126.1,57.7,126.1,57.8,126,58z"/>
</g>
<g id="XMLID_1_">
	<path id="XMLID_2_" class="st0" d="M5.1,51.9c-1-0.4-1.9-1.1-2.8-1.9C2.2,49.7,2,49.5,2,49.3c0-0.2,0.1-0.4,0.2-0.6
		c0.2-0.2,0.4-0.3,0.6-0.3s0.4,0.1,0.6,0.3c1.3,1.5,3,2.2,5.1,2.2c1.2,0,2.3-0.3,3.1-0.9c0.8-0.6,1.2-1.4,1.2-2.3
		c0-0.7-0.2-1.4-0.6-1.9c-0.4-0.5-0.9-0.9-1.6-1.2c-0.7-0.3-1.5-0.6-2.5-1c-1.1-0.3-2-0.7-2.8-1.1c-0.8-0.4-1.4-0.9-1.8-1.6
		c-0.5-0.7-0.7-1.5-0.7-2.5c0-0.9,0.2-1.7,0.7-2.4c0.5-0.7,1.2-1.3,2.1-1.7c0.9-0.4,1.9-0.6,3.1-0.6c1.1,0,2,0.2,3,0.5
		s1.7,0.9,2.2,1.5c0.3,0.3,0.4,0.5,0.4,0.8c0,0.2-0.1,0.4-0.3,0.5c-0.2,0.2-0.4,0.2-0.6,0.2c-0.2,0-0.3-0.1-0.4-0.2
		c-0.5-0.6-1.1-1-1.9-1.3c-0.8-0.3-1.6-0.5-2.4-0.5c-1.3,0-2.3,0.3-3.1,0.8c-0.8,0.6-1.2,1.3-1.2,2.3c0,1,0.4,1.8,1.1,2.3
		c0.8,0.5,1.9,1,3.3,1.5c1.2,0.4,2.2,0.7,3,1.1c0.8,0.4,1.4,0.9,1.9,1.6c0.5,0.7,0.7,1.6,0.7,2.8c0,0.9-0.3,1.7-0.8,2.4
		c-0.5,0.7-1.2,1.3-2.1,1.7c-0.9,0.4-1.9,0.6-3.1,0.6C7.2,52.5,6.1,52.3,5.1,51.9z"/>
	<path id="XMLID_4_" class="st0" d="M31.1,34.3c0.1,0.1,0.2,0.3,0.2,0.5c0,0.2-0.1,0.4-0.2,0.5c-0.1,0.1-0.3,0.2-0.6,0.2h-5.4v15.9
		c0,0.2-0.1,0.4-0.2,0.6c-0.2,0.1-0.3,0.2-0.6,0.2c-0.2,0-0.4-0.1-0.6-0.2c-0.1-0.1-0.2-0.3-0.2-0.6V35.5h-5.4
		c-0.2,0-0.4-0.1-0.6-0.2c-0.1-0.1-0.2-0.3-0.2-0.5c0-0.2,0.1-0.4,0.2-0.5c0.1-0.1,0.3-0.2,0.6-0.2h12.4
		C30.7,34.1,30.9,34.1,31.1,34.3z"/>
	<path id="XMLID_6_" class="st0" d="M47.1,35.2l-5.8,8v8.3c0,0.2-0.1,0.4-0.2,0.6c-0.2,0.1-0.3,0.2-0.6,0.2c-0.2,0-0.4-0.1-0.6-0.2
		c-0.1-0.1-0.2-0.3-0.2-0.6v-8.2l-5.8-7.9c-0.1-0.2-0.2-0.3-0.2-0.5c0-0.2,0.1-0.4,0.3-0.5c0.2-0.2,0.4-0.2,0.6-0.2
		c0.3,0,0.5,0.1,0.6,0.4l5.4,7.3l5.2-7.3c0.2-0.2,0.4-0.4,0.7-0.4c0.2,0,0.4,0.1,0.5,0.2c0.2,0.2,0.2,0.3,0.2,0.5
		C47.2,34.9,47.2,35,47.1,35.2z"/>
	<path id="XMLID_8_" class="st0" d="M61.5,50.9c0.1,0.1,0.2,0.3,0.2,0.5c0,0.2-0.1,0.4-0.2,0.6c-0.1,0.1-0.3,0.2-0.6,0.2h-9.3
		c-0.2,0-0.4-0.1-0.6-0.2c-0.1-0.1-0.2-0.3-0.2-0.6V34.8c0-0.2,0.1-0.4,0.2-0.6c0.2-0.1,0.4-0.2,0.6-0.2c0.2,0,0.4,0.1,0.6,0.2
		c0.2,0.1,0.2,0.3,0.2,0.6v15.9H61C61.2,50.7,61.4,50.8,61.5,50.9z"/>
	<path id="XMLID_10_" class="st0" d="M76.4,50.9c0.1,0.2,0.2,0.3,0.2,0.5c0,0.2-0.1,0.4-0.2,0.5c-0.1,0.1-0.3,0.2-0.6,0.2h-9.5
		c-0.2,0-0.4-0.1-0.6-0.2c-0.1-0.1-0.2-0.3-0.2-0.6V34.8c0-0.2,0.1-0.4,0.2-0.6c0.1-0.1,0.3-0.2,0.6-0.2h9.5c0.2,0,0.4,0.1,0.6,0.2
		c0.1,0.1,0.2,0.3,0.2,0.6c0,0.2-0.1,0.4-0.2,0.5c-0.1,0.1-0.3,0.2-0.6,0.2h-8.7v6.5h7.5c0.2,0,0.4,0.1,0.6,0.2
		c0.1,0.1,0.2,0.3,0.2,0.6c0,0.2-0.1,0.4-0.2,0.5c-0.1,0.1-0.3,0.2-0.6,0.2h-7.5v7.1h8.7C76,50.7,76.2,50.8,76.4,50.9z"/>
</g>
<path id="XMLID_21_" class="st1" d="M116.3,79c-7.8,21.9-28.6,37.6-53.1,38.1C31.4,117.5,5.3,92.3,4.8,60.5c0-1.2,0-2.4,0.1-3.7"/>
<path id="XMLID_20_" class="st1" d="M12.9,30C22.8,13.6,40.7,2.5,61.2,2.1c29.9-0.5,54.9,22,58.1,51.2"/>
<g id="XMLID_11_">
	<path id="XMLID_17_" class="st0" d="M106.3,83.9h0.5c0,0,0,0,0,0l-2.2-4.9c0,0,0,0-0.1,0h-0.5c0,0-0.1,0-0.1,0l-2.2,4.9
		c0,0,0,0,0,0h0.5c0.1,0,0.1,0,0.2-0.1l0.6-1.2c0,0,0,0,0,0h2.5c0,0,0,0,0,0l0.5,1.2C106.2,83.8,106.2,83.9,106.3,83.9z M103.3,81.9
		l1-2.2c0,0,0,0,0,0l1,2.2c0,0,0,0,0,0L103.3,81.9C103.3,82,103.3,82,103.3,81.9z"/>
	<path id="XMLID_16_" class="st0" d="M93.8,83.8l-3.3-4c0,0,0,0,0,0v4c0,0.1-0.1,0.1-0.1,0.1H90c0,0,0,0,0,0v-5c0,0,0,0,0,0l0.6,0
		c0.1,0,0.1,0,0.1,0.1L94,83c0,0,0,0,0,0v-4c0-0.1,0.1-0.1,0.1-0.1h0.5c0,0,0,0,0,0v5c0,0,0,0,0,0l-0.6,0
		C93.9,83.9,93.9,83.9,93.8,83.8z"/>
	<path id="XMLID_15_" class="st0" d="M100.1,83.8l-3.3-4c0,0,0,0,0,0v4c0,0.1-0.1,0.1-0.1,0.1h-0.5c0,0,0,0,0,0v-5c0,0,0,0,0,0
		l0.6,0c0.1,0,0.1,0,0.1,0.1l3.3,4.1c0,0,0,0,0,0v-4c0-0.1,0.1-0.1,0.1-0.1h0.5c0,0,0,0,0,0v5c0,0,0,0,0,0l-0.6,0
		C100.1,83.9,100.1,83.9,100.1,83.8z"/>
	<path id="XMLID_14_" class="st0" d="M88.8,79.3v-0.5c0,0,0,0,0,0h-3.3c0,0-0.1,0-0.1,0.1v4.8c0,0,0,0.1,0.1,0.1h3.3c0,0,0,0,0,0
		v-0.5c0-0.1-0.1-0.1-0.1-0.1H86c0,0,0,0,0,0v-1.6c0,0,0,0,0,0h2.3c0,0,0.1,0,0.1-0.1v-0.5c0,0,0-0.1-0.1-0.1H86c0,0,0,0,0,0v-1.6
		c0,0,0,0,0,0h2.6C88.7,79.5,88.8,79.4,88.8,79.3z"/>
	<path id="XMLID_13_" class="st0" d="M82.2,78.9h-0.5c-0.1,0-0.1,0-0.2,0.1l-1.8,4c0,0,0,0,0,0l-1.8-4c0-0.1-0.1-0.1-0.2-0.1h-0.5
		c0,0,0,0,0,0l2.2,4.9c0,0,0,0,0.1,0h0.5c0,0,0.1,0,0.1,0L82.2,78.9C82.3,78.9,82.2,78.9,82.2,78.9z"/>
	<path id="XMLID_12_" class="st0" d="M84,83.9V79c0-0.1-0.1-0.1-0.1-0.1h-0.5c0,0,0,0,0,0v4.9c0,0.1,0.1,0.1,0.1,0.1L84,83.9
		C84,83.9,84,83.9,84,83.9z"/>
</g>
</svg>
